<?xml version="1.0" encoding="utf-8"?>
<!-- Generator: Adobe Illustrator 22.0.1, SVG Export Plug-In . SVG Version: 6.00 Build 0)  -->
<svg version="1.1" id="Layer_1" xmlns:ev="http://www.w3.org/2001/xml-events"
	 xmlns="http://www.w3.org/2000/svg" xmlns:xlink="http://www.w3.org/1999/xlink" x="0px" y="0px" viewBox="0 0 173.5 173"
	 style="enable-background:new 0 0 173.5 173;" xml:space="preserve">
<style type="text/css">
	.st0{fill:#fff;}
</style>
<desc></desc>
<g>
	<g>
		<rect id="p" x="3" y="2" class="st0" width="8" height="8"/>
	</g>
	<g>
		<rect id="p_1_" x="3" y="10" class="st0" width="8" height="8"/>
	</g>
	<g>
		<rect id="p_2_" x="3" y="18" class="st0" width="8" height="8"/>
	</g>
	<g>
		<rect id="p_3_" x="3" y="26" class="st0" width="8" height="8"/>
	</g>
	<g>
		<rect id="p_4_" x="3" y="34" class="st0" width="8" height="8"/>
	</g>
	<g>
		<rect id="p_5_" x="3" y="42" class="st0" width="8" height="8"/>
	</g>
	<g>
		<rect id="p_6_" x="3" y="50" class="st0" width="8" height="8"/>
	</g>
	<g>
		<rect id="p_7_" x="3" y="66" class="st0" width="8" height="8"/>
	</g>
	<g>
		<rect id="p_8_" x="3" y="82" class="st0" width="8" height="8"/>
	</g>
	<g>
		<rect id="p_9_" x="3" y="90" class="st0" width="8" height="8"/>
	</g>
	<g>
		<rect id="p_10_" x="3" y="114" class="st0" width="8" height="8"/>
	</g>
	<g>
		<rect id="p_11_" x="3" y="122" class="st0" width="8" height="8"/>
	</g>
	<g>
		<rect id="p_12_" x="3" y="130" class="st0" width="8" height="8"/>
	</g>
	<g>
		<rect id="p_13_" x="3" y="138" class="st0" width="8" height="8"/>
	</g>
	<g>
		<rect id="p_14_" x="3" y="146" class="st0" width="8" height="8"/>
	</g>
	<g>
		<rect id="p_15_" x="3" y="154" class="st0" width="8" height="8"/>
	</g>
	<g>
		<rect id="p_16_" x="3" y="162" class="st0" width="8" height="8"/>
	</g>
	<g>
		<rect id="p_17_" x="11" y="2" class="st0" width="8" height="8"/>
	</g>
	<g>
		<rect id="p_18_" x="11" y="50" class="st0" width="8" height="8"/>
	</g>
	<g>
		<rect id="p_19_" x="11" y="66" class="st0" width="8" height="8"/>
	</g>
	<g>
		<rect id="p_20_" x="11" y="74" class="st0" width="8" height="8"/>
	</g>
	<g>
		<rect id="p_21_" x="11" y="82" class="st0" width="8" height="8"/>
	</g>
	<g>
		<rect id="p_22_" x="11" y="90" class="st0" width="8" height="8"/>
	</g>
	<g>
		<rect id="p_23_" x="11" y="114" class="st0" width="8" height="8"/>
	</g>
	<g>
		<rect id="p_24_" x="11" y="162" class="st0" width="8" height="8"/>
	</g>
	<g>
		<rect id="p_25_" x="19" y="2" class="st0" width="8" height="8"/>
	</g>
	<g>
		<rect id="p_26_" x="19" y="18" class="st0" width="8" height="8"/>
	</g>
	<g>
		<rect id="p_27_" x="19" y="26" class="st0" width="8" height="8"/>
	</g>
	<g>
		<rect id="p_28_" x="19" y="34" class="st0" width="8" height="8"/>
	</g>
	<g>
		<rect id="p_29_" x="19" y="50" class="st0" width="8" height="8"/>
	</g>
	<g>
		<rect id="p_30_" x="19" y="74" class="st0" width="8" height="8"/>
	</g>
	<g>
		<rect id="p_31_" x="19" y="82" class="st0" width="8" height="8"/>
	</g>
	<g>
		<rect id="p_32_" x="19" y="90" class="st0" width="8" height="8"/>
	</g>
	<g>
		<rect id="p_33_" x="19" y="114" class="st0" width="8" height="8"/>
	</g>
	<g>
		<rect id="p_34_" x="19" y="130" class="st0" width="8" height="8"/>
	</g>
	<g>
		<rect id="p_35_" x="19" y="138" class="st0" width="8" height="8"/>
	</g>
	<g>
		<rect id="p_36_" x="19" y="146" class="st0" width="8" height="8"/>
	</g>
	<g>
		<rect id="p_37_" x="19" y="162" class="st0" width="8" height="8"/>
	</g>
	<g>
		<rect id="p_38_" x="27" y="2" class="st0" width="8" height="8"/>
	</g>
	<g>
		<rect id="p_39_" x="27" y="18" class="st0" width="8" height="8"/>
	</g>
	<g>
		<rect id="p_40_" x="27" y="26" class="st0" width="8" height="8"/>
	</g>
	<g>
		<rect id="p_41_" x="27" y="34" class="st0" width="8" height="8"/>
	</g>
	<g>
		<rect id="p_42_" x="27" y="50" class="st0" width="8" height="8"/>
	</g>
	<g>
		<rect id="p_43_" x="27" y="66" class="st0" width="8" height="8"/>
	</g>
	<g>
		<rect id="p_44_" x="27" y="90" class="st0" width="8" height="8"/>
	</g>
	<g>
		<rect id="p_45_" x="27" y="114" class="st0" width="8" height="8"/>
	</g>
	<g>
		<rect id="p_46_" x="27" y="130" class="st0" width="8" height="8"/>
	</g>
	<g>
		<rect id="p_47_" x="27" y="138" class="st0" width="8" height="8"/>
	</g>
	<g>
		<rect id="p_48_" x="27" y="146" class="st0" width="8" height="8"/>
	</g>
	<g>
		<rect id="p_49_" x="27" y="162" class="st0" width="8" height="8"/>
	</g>
	<g>
		<rect id="p_50_" x="35" y="2" class="st0" width="8" height="8"/>
	</g>
	<g>
		<rect id="p_51_" x="35" y="18" class="st0" width="8" height="8"/>
	</g>
	<g>
		<rect id="p_52_" x="35" y="26" class="st0" width="8" height="8"/>
	</g>
	<g>
		<rect id="p_53_" x="35" y="34" class="st0" width="8" height="8"/>
	</g>
	<g>
		<rect id="p_54_" x="35" y="50" class="st0" width="8" height="8"/>
	</g>
	<g>
		<rect id="p_55_" x="35" y="74" class="st0" width="8" height="8"/>
	</g>
	<g>
		<rect id="p_56_" x="35" y="90" class="st0" width="8" height="8"/>
	</g>
	<g>
		<rect id="p_57_" x="35" y="114" class="st0" width="8" height="8"/>
	</g>
	<g>
		<rect id="p_58_" x="35" y="130" class="st0" width="8" height="8"/>
	</g>
	<g>
		<rect id="p_59_" x="35" y="138" class="st0" width="8" height="8"/>
	</g>
	<g>
		<rect id="p_60_" x="35" y="146" class="st0" width="8" height="8"/>
	</g>
	<g>
		<rect id="p_61_" x="35" y="162" class="st0" width="8" height="8"/>
	</g>
	<g>
		<rect id="p_62_" x="43" y="2" class="st0" width="8" height="8"/>
	</g>
	<g>
		<rect id="p_63_" x="43" y="50" class="st0" width="8" height="8"/>
	</g>
	<g>
		<rect id="p_64_" x="43" y="74" class="st0" width="8" height="8"/>
	</g>
	<g>
		<rect id="p_65_" x="43" y="82" class="st0" width="8" height="8"/>
	</g>
	<g>
		<rect id="p_66_" x="43" y="98" class="st0" width="8" height="8"/>
	</g>
	<g>
		<rect id="p_67_" x="43" y="114" class="st0" width="8" height="8"/>
	</g>
	<g>
		<rect id="p_68_" x="43" y="162" class="st0" width="8" height="8"/>
	</g>
	<g>
		<rect id="p_69_" x="51" y="2" class="st0" width="8" height="8"/>
	</g>
	<g>
		<rect id="p_70_" x="51" y="10" class="st0" width="8" height="8"/>
	</g>
	<g>
		<rect id="p_71_" x="51" y="18" class="st0" width="8" height="8"/>
	</g>
	<g>
		<rect id="p_72_" x="51" y="26" class="st0" width="8" height="8"/>
	</g>
	<g>
		<rect id="p_73_" x="51" y="34" class="st0" width="8" height="8"/>
	</g>
	<g>
		<rect id="p_74_" x="51" y="42" class="st0" width="8" height="8"/>
	</g>
	<g>
		<rect id="p_75_" x="51" y="50" class="st0" width="8" height="8"/>
	</g>
	<g>
		<rect id="p_76_" x="51" y="66" class="st0" width="8" height="8"/>
	</g>
	<g>
		<rect id="p_77_" x="51" y="82" class="st0" width="8" height="8"/>
	</g>
	<g>
		<rect id="p_78_" x="51" y="98" class="st0" width="8" height="8"/>
	</g>
	<g>
		<rect id="p_79_" x="51" y="114" class="st0" width="8" height="8"/>
	</g>
	<g>
		<rect id="p_80_" x="51" y="122" class="st0" width="8" height="8"/>
	</g>
	<g>
		<rect id="p_81_" x="51" y="130" class="st0" width="8" height="8"/>
	</g>
	<g>
		<rect id="p_82_" x="51" y="138" class="st0" width="8" height="8"/>
	</g>
	<g>
		<rect id="p_83_" x="51" y="146" class="st0" width="8" height="8"/>
	</g>
	<g>
		<rect id="p_84_" x="51" y="154" class="st0" width="8" height="8"/>
	</g>
	<g>
		<rect id="p_85_" x="51" y="162" class="st0" width="8" height="8"/>
	</g>
	<g>
		<rect id="p_86_" x="59" y="66" class="st0" width="8" height="8"/>
	</g>
	<g>
		<rect id="p_87_" x="59" y="74" class="st0" width="8" height="8"/>
	</g>
	<g>
		<rect id="p_88_" x="59" y="90" class="st0" width="8" height="8"/>
	</g>
	<g>
		<rect id="p_89_" x="59" y="98" class="st0" width="8" height="8"/>
	</g>
	<g>
		<rect id="p_90_" x="67" y="10" class="st0" width="8" height="8"/>
	</g>
	<g>
		<rect id="p_91_" x="67" y="18" class="st0" width="8" height="8"/>
	</g>
	<g>
		<rect id="p_92_" x="67" y="34" class="st0" width="8" height="8"/>
	</g>
	<g>
		<rect id="p_93_" x="67" y="42" class="st0" width="8" height="8"/>
	</g>
	<g>
		<rect id="p_94_" x="67" y="50" class="st0" width="8" height="8"/>
	</g>
	<g>
		<rect id="p_95_" x="67" y="58" class="st0" width="8" height="8"/>
	</g>
	<g>
		<rect id="p_96_" x="67" y="106" class="st0" width="8" height="8"/>
	</g>
	<g>
		<rect id="p_97_" x="67" y="114" class="st0" width="8" height="8"/>
	</g>
	<g>
		<rect id="p_98_" x="67" y="138" class="st0" width="8" height="8"/>
	</g>
	<g>
		<rect id="p_99_" x="67" y="154" class="st0" width="8" height="8"/>
	</g>
	<g>
		<rect id="p_100_" x="67" y="162" class="st0" width="8" height="8"/>
	</g>
	<g>
		<rect id="p_101_" x="75" y="2" class="st0" width="8" height="8"/>
	</g>
	<g>
		<rect id="p_102_" x="75" y="10" class="st0" width="8" height="8"/>
	</g>
	<g>
		<rect id="p_103_" x="75" y="18" class="st0" width="8" height="8"/>
	</g>
	<g>
		<rect id="p_104_" x="75" y="26" class="st0" width="8" height="8"/>
	</g>
	<g>
		<rect id="p_105_" x="75" y="58" class="st0" width="8" height="8"/>
	</g>
	<g>
		<rect id="p_106_" x="75" y="66" class="st0" width="8" height="8"/>
	</g>
	<g>
		<rect id="p_107_" x="75" y="90" class="st0" width="8" height="8"/>
	</g>
	<g>
		<rect id="p_108_" x="75" y="98" class="st0" width="8" height="8"/>
	</g>
	<g>
		<rect id="p_109_" x="75" y="106" class="st0" width="8" height="8"/>
	</g>
	<g>
		<rect id="p_110_" x="75" y="114" class="st0" width="8" height="8"/>
	</g>
	<g>
		<rect id="p_111_" x="75" y="146" class="st0" width="8" height="8"/>
	</g>
	<g>
		<rect id="p_112_" x="75" y="154" class="st0" width="8" height="8"/>
	</g>
	<g>
		<rect id="p_113_" x="83" y="50" class="st0" width="8" height="8"/>
	</g>
	<g>
		<rect id="p_114_" x="83" y="58" class="st0" width="8" height="8"/>
	</g>
	<g>
		<rect id="p_115_" x="83" y="66" class="st0" width="8" height="8"/>
	</g>
	<g>
		<rect id="p_116_" x="83" y="74" class="st0" width="8" height="8"/>
	</g>
	<g>
		<rect id="p_117_" x="83" y="90" class="st0" width="8" height="8"/>
	</g>
	<g>
		<rect id="p_118_" x="83" y="98" class="st0" width="8" height="8"/>
	</g>
	<g>
		<rect id="p_119_" x="83" y="114" class="st0" width="8" height="8"/>
	</g>
	<g>
		<rect id="p_120_" x="83" y="122" class="st0" width="8" height="8"/>
	</g>
	<g>
		<rect id="p_121_" x="83" y="146" class="st0" width="8" height="8"/>
	</g>
	<g>
		<rect id="p_122_" x="83" y="154" class="st0" width="8" height="8"/>
	</g>
	<g>
		<rect id="p_123_" x="91" y="2" class="st0" width="8" height="8"/>
	</g>
	<g>
		<rect id="p_124_" x="91" y="10" class="st0" width="8" height="8"/>
	</g>
	<g>
		<rect id="p_125_" x="91" y="26" class="st0" width="8" height="8"/>
	</g>
	<g>
		<rect id="p_126_" x="91" y="42" class="st0" width="8" height="8"/>
	</g>
	<g>
		<rect id="p_127_" x="91" y="58" class="st0" width="8" height="8"/>
	</g>
	<g>
		<rect id="p_128_" x="91" y="90" class="st0" width="8" height="8"/>
	</g>
	<g>
		<rect id="p_129_" x="91" y="106" class="st0" width="8" height="8"/>
	</g>
	<g>
		<rect id="p_130_" x="91" y="122" class="st0" width="8" height="8"/>
	</g>
	<g>
		<rect id="p_131_" x="91" y="130" class="st0" width="8" height="8"/>
	</g>
	<g>
		<rect id="p_132_" x="91" y="138" class="st0" width="8" height="8"/>
	</g>
	<g>
		<rect id="p_133_" x="91" y="162" class="st0" width="8" height="8"/>
	</g>
	<g>
		<rect id="p_134_" x="99" y="2" class="st0" width="8" height="8"/>
	</g>
	<g>
		<rect id="p_135_" x="99" y="18" class="st0" width="8" height="8"/>
	</g>
	<g>
		<rect id="p_136_" x="99" y="34" class="st0" width="8" height="8"/>
	</g>
	<g>
		<rect id="p_137_" x="99" y="42" class="st0" width="8" height="8"/>
	</g>
	<g>
		<rect id="p_138_" x="99" y="50" class="st0" width="8" height="8"/>
	</g>
	<g>
		<rect id="p_139_" x="99" y="58" class="st0" width="8" height="8"/>
	</g>
	<g>
		<rect id="p_140_" x="99" y="82" class="st0" width="8" height="8"/>
	</g>
	<g>
		<rect id="p_141_" x="99" y="98" class="st0" width="8" height="8"/>
	</g>
	<g>
		<rect id="p_142_" x="99" y="122" class="st0" width="8" height="8"/>
	</g>
	<g>
		<rect id="p_143_" x="99" y="146" class="st0" width="8" height="8"/>
	</g>
	<g>
		<rect id="p_144_" x="99" y="162" class="st0" width="8" height="8"/>
	</g>
	<g>
		<rect id="p_145_" x="107" y="82" class="st0" width="8" height="8"/>
	</g>
	<g>
		<rect id="p_146_" x="107" y="114" class="st0" width="8" height="8"/>
	</g>
	<g>
		<rect id="p_147_" x="107" y="122" class="st0" width="8" height="8"/>
	</g>
	<g>
		<rect id="p_148_" x="107" y="154" class="st0" width="8" height="8"/>
	</g>
	<g>
		<rect id="p_149_" x="115" y="2" class="st0" width="8" height="8"/>
	</g>
	<g>
		<rect id="p_150_" x="115" y="10" class="st0" width="8" height="8"/>
	</g>
	<g>
		<rect id="p_151_" x="115" y="18" class="st0" width="8" height="8"/>
	</g>
	<g>
		<rect id="p_152_" x="115" y="26" class="st0" width="8" height="8"/>
	</g>
	<g>
		<rect id="p_153_" x="115" y="34" class="st0" width="8" height="8"/>
	</g>
	<g>
		<rect id="p_154_" x="115" y="42" class="st0" width="8" height="8"/>
	</g>
	<g>
		<rect id="p_155_" x="115" y="50" class="st0" width="8" height="8"/>
	</g>
	<g>
		<rect id="p_156_" x="115" y="66" class="st0" width="8" height="8"/>
	</g>
	<g>
		<rect id="p_157_" x="115" y="74" class="st0" width="8" height="8"/>
	</g>
	<g>
		<rect id="p_158_" x="115" y="98" class="st0" width="8" height="8"/>
	</g>
	<g>
		<rect id="p_159_" x="115" y="130" class="st0" width="8" height="8"/>
	</g>
	<g>
		<rect id="p_160_" x="115" y="154" class="st0" width="8" height="8"/>
	</g>
	<g>
		<rect id="p_161_" x="123" y="2" class="st0" width="8" height="8"/>
	</g>
	<g>
		<rect id="p_162_" x="123" y="50" class="st0" width="8" height="8"/>
	</g>
	<g>
		<rect id="p_163_" x="123" y="66" class="st0" width="8" height="8"/>
	</g>
	<g>
		<rect id="p_164_" x="123" y="106" class="st0" width="8" height="8"/>
	</g>
	<g>
		<rect id="p_165_" x="123" y="114" class="st0" width="8" height="8"/>
	</g>
	<g>
		<rect id="p_166_" x="123" y="122" class="st0" width="8" height="8"/>
	</g>
	<g>
		<rect id="p_167_" x="123" y="130" class="st0" width="8" height="8"/>
	</g>
	<g>
		<rect id="p_168_" x="131" y="2" class="st0" width="8" height="8"/>
	</g>
	<g>
		<rect id="p_169_" x="131" y="18" class="st0" width="8" height="8"/>
	</g>
	<g>
		<rect id="p_170_" x="131" y="26" class="st0" width="8" height="8"/>
	</g>
	<g>
		<rect id="p_171_" x="131" y="34" class="st0" width="8" height="8"/>
	</g>
	<g>
		<rect id="p_172_" x="131" y="50" class="st0" width="8" height="8"/>
	</g>
	<g>
		<rect id="p_173_" x="131" y="66" class="st0" width="8" height="8"/>
	</g>
	<g>
		<rect id="p_174_" x="131" y="98" class="st0" width="8" height="8"/>
	</g>
	<g>
		<rect id="p_175_" x="131" y="106" class="st0" width="8" height="8"/>
	</g>
	<g>
		<rect id="p_176_" x="131" y="122" class="st0" width="8" height="8"/>
	</g>
	<g>
		<rect id="p_177_" x="131" y="130" class="st0" width="8" height="8"/>
	</g>
	<g>
		<rect id="p_178_" x="131" y="146" class="st0" width="8" height="8"/>
	</g>
	<g>
		<rect id="p_179_" x="131" y="154" class="st0" width="8" height="8"/>
	</g>
	<g>
		<rect id="p_180_" x="131" y="162" class="st0" width="8" height="8"/>
	</g>
	<g>
		<rect id="p_181_" x="139" y="2" class="st0" width="8" height="8"/>
	</g>
	<g>
		<rect id="p_182_" x="139" y="18" class="st0" width="8" height="8"/>
	</g>
	<g>
		<rect id="p_183_" x="139" y="26" class="st0" width="8" height="8"/>
	</g>
	<g>
		<rect id="p_184_" x="139" y="34" class="st0" width="8" height="8"/>
	</g>
	<g>
		<rect id="p_185_" x="139" y="50" class="st0" width="8" height="8"/>
	</g>
	<g>
		<rect id="p_186_" x="139" y="82" class="st0" width="8" height="8"/>
	</g>
	<g>
		<rect id="p_187_" x="139" y="90" class="st0" width="8" height="8"/>
	</g>
	<g>
		<rect id="p_188_" x="139" y="98" class="st0" width="8" height="8"/>
	</g>
	<g>
		<rect id="p_189_" x="139" y="106" class="st0" width="8" height="8"/>
	</g>
	<g>
		<rect id="p_190_" x="139" y="122" class="st0" width="8" height="8"/>
	</g>
	<g>
		<rect id="p_191_" x="139" y="138" class="st0" width="8" height="8"/>
	</g>
	<g>
		<rect id="p_192_" x="139" y="162" class="st0" width="8" height="8"/>
	</g>
	<g>
		<rect id="p_193_" x="147" y="2" class="st0" width="8" height="8"/>
	</g>
	<g>
		<rect id="p_194_" x="147" y="18" class="st0" width="8" height="8"/>
	</g>
	<g>
		<rect id="p_195_" x="147" y="26" class="st0" width="8" height="8"/>
	</g>
	<g>
		<rect id="p_196_" x="147" y="34" class="st0" width="8" height="8"/>
	</g>
	<g>
		<rect id="p_197_" x="147" y="50" class="st0" width="8" height="8"/>
	</g>
	<g>
		<rect id="p_198_" x="147" y="66" class="st0" width="8" height="8"/>
	</g>
	<g>
		<rect id="p_199_" x="147" y="82" class="st0" width="8" height="8"/>
	</g>
	<g>
		<rect id="p_200_" x="147" y="106" class="st0" width="8" height="8"/>
	</g>
	<g>
		<rect id="p_201_" x="147" y="114" class="st0" width="8" height="8"/>
	</g>
	<g>
		<rect id="p_202_" x="147" y="130" class="st0" width="8" height="8"/>
	</g>
	<g>
		<rect id="p_203_" x="147" y="138" class="st0" width="8" height="8"/>
	</g>
	<g>
		<rect id="p_204_" x="147" y="154" class="st0" width="8" height="8"/>
	</g>
	<g>
		<rect id="p_205_" x="147" y="162" class="st0" width="8" height="8"/>
	</g>
	<g>
		<rect id="p_206_" x="155" y="2" class="st0" width="8" height="8"/>
	</g>
	<g>
		<rect id="p_207_" x="155" y="50" class="st0" width="8" height="8"/>
	</g>
	<g>
		<rect id="p_208_" x="155" y="66" class="st0" width="8" height="8"/>
	</g>
	<g>
		<rect id="p_209_" x="155" y="74" class="st0" width="8" height="8"/>
	</g>
	<g>
		<rect id="p_210_" x="155" y="90" class="st0" width="8" height="8"/>
	</g>
	<g>
		<rect id="p_211_" x="155" y="114" class="st0" width="8" height="8"/>
	</g>
	<g>
		<rect id="p_212_" x="155" y="130" class="st0" width="8" height="8"/>
	</g>
	<g>
		<rect id="p_213_" x="155" y="138" class="st0" width="8" height="8"/>
	</g>
	<g>
		<rect id="p_214_" x="155" y="162" class="st0" width="8" height="8"/>
	</g>
	<g>
		<rect id="p_215_" x="163" y="2" class="st0" width="8" height="8"/>
	</g>
	<g>
		<rect id="p_216_" x="163" y="10" class="st0" width="8" height="8"/>
	</g>
	<g>
		<rect id="p_217_" x="163" y="18" class="st0" width="8" height="8"/>
	</g>
	<g>
		<rect id="p_218_" x="163" y="26" class="st0" width="8" height="8"/>
	</g>
	<g>
		<rect id="p_219_" x="163" y="34" class="st0" width="8" height="8"/>
	</g>
	<g>
		<rect id="p_220_" x="163" y="42" class="st0" width="8" height="8"/>
	</g>
	<g>
		<rect id="p_221_" x="163" y="50" class="st0" width="8" height="8"/>
	</g>
	<g>
		<rect id="p_222_" x="163" y="74" class="st0" width="8" height="8"/>
	</g>
	<g>
		<rect id="p_223_" x="163" y="82" class="st0" width="8" height="8"/>
	</g>
	<g>
		<rect id="p_224_" x="163" y="90" class="st0" width="8" height="8"/>
	</g>
	<g>
		<rect id="p_225_" x="163" y="106" class="st0" width="8" height="8"/>
	</g>
	<g>
		<rect id="p_226_" x="163" y="122" class="st0" width="8" height="8"/>
	</g>
	<g>
		<rect id="p_227_" x="163" y="130" class="st0" width="8" height="8"/>
	</g>
	<g>
		<rect id="p_228_" x="163" y="138" class="st0" width="8" height="8"/>
	</g>
	<g>
		<rect id="p_229_" x="163" y="146" class="st0" width="8" height="8"/>
	</g>
</g>
</svg>
